<svg id="Group_11" data-name="Group 11" xmlns="http://www.w3.org/2000/svg" width="20.304" height="20.304" viewBox="0 0 20.304 20.304">
  <path id="Path_17" data-name="Path 17" d="M166,109.569A3.569,3.569,0,1,0,169.569,106,3.573,3.573,0,0,0,166,109.569Zm6.345,0a2.776,2.776,0,1,1-2.776-2.776A2.779,2.779,0,0,1,172.345,109.569Z" transform="translate(-159.417 -101.796)" fill="#333"/>
  <circle id="Ellipse_2" data-name="Ellipse 2" cx="0.5" cy="0.5" r="0.5" transform="translate(17 3.304)" fill="#333"/>
  <path id="Path_18" data-name="Path 18" d="M10.152,20.3A10.157,10.157,0,0,0,18.836,4.886a.4.4,0,1,0-.678.412,9.371,9.371,0,0,1-1.8,11.861,6.346,6.346,0,0,0-12.414,0A9.361,9.361,0,0,1,10.152.793a9.271,9.271,0,0,1,5.739,1.963.4.4,0,0,0,.487-.626,10.162,10.162,0,0,0-13.406.842A10.154,10.154,0,0,0,10.152,20.3Zm0-7.376a5.526,5.526,0,0,1,5.5,4.8,9.372,9.372,0,0,1-11,0,5.524,5.524,0,0,1,5.5-4.8Z" fill="#333"/>
</svg>
