<svg id="Group_6" data-name="Group 6" xmlns="http://www.w3.org/2000/svg" width="17.859" height="20.941" viewBox="0 0 17.859 20.941">
  <g id="Group_5" data-name="Group 5">
    <g id="Group_4" data-name="Group 4" transform="translate(0 0)">
      <path id="Path_11" data-name="Path 11" d="M55.216,3.616A34.834,34.834,0,0,1,46.834.061a.44.44,0,0,0-.448,0,33.88,33.88,0,0,1-8.381,3.555.44.44,0,0,0-.324.425v4.5A12.949,12.949,0,0,0,41.613,18c1.931,1.892,4.181,2.939,5,2.939s3.066-1.046,5-2.939A12.949,12.949,0,0,0,55.54,8.542v-4.5A.44.44,0,0,0,55.216,3.616Zm-.557,4.926a12.085,12.085,0,0,1-3.668,8.831A9.706,9.706,0,0,1,46.61,20.06a9.707,9.707,0,0,1-4.381-2.687,12.085,12.085,0,0,1-3.668-8.831V4.375A34.692,34.692,0,0,0,46.611.951a35.79,35.79,0,0,0,8.048,3.424Z" transform="translate(-37.681 0)" fill="#333"/>
      <path id="Path_12" data-name="Path 12" d="M83.608,99.222a.44.44,0,0,0-.571-.248c-.787.31-1.595.6-2.4.848a.441.441,0,0,0-.309.42v1.7a.44.44,0,0,0,.881,0v-1.379c.723-.234,1.445-.493,2.151-.771A.44.44,0,0,0,83.608,99.222Z" transform="translate(-78.583 -94.896)" fill="#333"/>
      <path id="Path_13" data-name="Path 13" d="M170.644,87.089a.441.441,0,0,0,.177-.037l.008,0a.44.44,0,0,0-.356-.806l-.007,0a.44.44,0,0,0,.178.843Z" transform="translate(-164.782 -82.679)" fill="#333"/>
      <path id="Path_14" data-name="Path 14" d="M306.643,345.6a.441.441,0,0,0-.61.128,10.72,10.72,0,0,1-1.266,1.581,11.252,11.252,0,0,1-1.264,1.124.441.441,0,1,0,.534.7,12.142,12.142,0,0,0,1.363-1.212,11.591,11.591,0,0,0,1.37-1.712A.44.44,0,0,0,306.643,345.6Z" transform="translate(-292.465 -331.396)" fill="#333"/>
      <path id="Path_15" data-name="Path 15" d="M276.809,432.026l-.025.015a.44.44,0,1,0,.441.762l.029-.017a.44.44,0,1,0-.445-.76Z" transform="translate(-266.793 -414.298)" fill="#333"/>
      <path id="Path_16" data-name="Path 16" d="M125.266,157.847a1.432,1.432,0,1,0-2.026,2.026l2.6,2.6a1.433,1.433,0,0,0,2.026,0l5.43-5.43a1.432,1.432,0,0,0-2.026-2.026l-4.417,4.417Zm6.628-2.206a.551.551,0,1,1,.78.78l-5.43,5.43a.552.552,0,0,1-.78,0l-2.6-2.6a.551.551,0,0,1,.78-.78l1.9,1.9a.44.44,0,0,0,.623,0Z" transform="translate(-119.339 -148.276)" fill="#333"/>
    </g>
  </g>
</svg>
