<svg xmlns="http://www.w3.org/2000/svg" width="20.122" height="20.122" viewBox="0 0 20.122 20.122">
  <g id="Layer_86" data-name="Layer 86" transform="translate(-2.75 -2.75)">
    <path id="Path_1" data-name="Path 1" d="M23.178,12.783a7.35,7.35,0,1,0,0,10.4,7.35,7.35,0,0,0,0-10.4Zm-.605,9.789a6.491,6.491,0,1,1,0-9.184A6.491,6.491,0,0,1,22.572,22.573Z" transform="translate(-5.17 -5.17)" fill="#fff"/>
    <path id="Path_2" data-name="Path 2" d="M28.253,32.662H22.839l1.242-1.245a.43.43,0,0,0-.605-.605L21.5,32.789a.433.433,0,0,0-.127.306.42.42,0,0,0,.127.3l1.978,1.978a.43.43,0,0,0,.605-.609l-1.242-1.242h5.414a.43.43,0,1,0,0-.86Z" transform="translate(-12.215 -18.345)" fill="#fff"/>
    <path id="Path_3" data-name="Path 3" d="M26.578,19.468a.43.43,0,1,0-.605.609l1.242,1.242H21.8a.43.43,0,1,0,0,.86h5.414l-1.242,1.245a.43.43,0,0,0,.605.605l1.978-1.978a.433.433,0,0,0,.127-.306.42.42,0,0,0-.127-.3Z" transform="translate(-12.215 -10.874)" fill="#fff"/>
    <path id="Path_4" data-name="Path 4" d="M12.811,2.75A10.061,10.061,0,1,0,22.872,12.811,10.061,10.061,0,0,0,12.811,2.75Zm0,19.262a9.2,9.2,0,1,1,9.2-9.2,9.2,9.2,0,0,1-9.2,9.2Z" fill="#fff"/>
  </g>
</svg>
