<svg id="Group_443" data-name="Group 443" xmlns="http://www.w3.org/2000/svg" xmlns:xlink="http://www.w3.org/1999/xlink" width="23.009" height="27.838" viewBox="0 0 23.009 27.838">
  <defs>
    <clipPath id="clip-path">
      <rect id="Rectangle_48" data-name="Rectangle 48" width="23.009" height="27.838" transform="translate(0 0)" fill="none"/>
    </clipPath>
  </defs>
  <g id="Group_442" data-name="Group 442" transform="translate(0 0)" clip-path="url(#clip-path)">
    <path id="Path_47" data-name="Path 47" d="M8.292,13.446a.464.464,0,0,0,.463.463H8.8a.463.463,0,1,0,0-.926H8.755A.463.463,0,0,0,8.292,13.446Zm.023-1.55a.462.462,0,0,0,.925,0V8.241a.462.462,0,1,0-.925,0ZM3.551,14.685a.161.161,0,0,0,.058.22.164.164,0,0,0,.081.022H13.863A.161.161,0,0,0,14,14.685L8.915,5.875a.146.146,0,0,0-.138-.08.149.149,0,0,0-.14.08L3.55,14.685Zm.139,1.166H13.863a1.085,1.085,0,0,0,.94-1.628L9.717,5.412a1.087,1.087,0,0,0-1.881,0L2.75,14.223a1.086,1.086,0,0,0,.94,1.628Zm15.8,6.036a2.428,2.428,0,1,0-2.428,2.429A2.428,2.428,0,0,0,19.488,21.888Zm-5.781,0a3.353,3.353,0,1,0,3.354-3.353h0A3.357,3.357,0,0,0,13.707,21.888ZM8.852.82a.463.463,0,0,0,.462.463h.028a.463.463,0,0,0,0-.926H9.314A.462.462,0,0,0,8.852.82ZM.165,2.313V23.3a.262.262,0,0,0,.261.261H10.54a.668.668,0,0,1-.436-.627v-.032H1.285a.462.462,0,0,1-.462-.463h0V3.172a.463.463,0,0,1,.462-.463H4.767V2.051H.426a.262.262,0,0,0-.261.262Zm5.527-.882v1.9a.261.261,0,0,0,.261.261H12.7a.261.261,0,0,0,.261-.261v-1.9a.262.262,0,0,0-.261-.262h-1.61A.462.462,0,0,1,10.63.708h0V.165h-2.6V.707a.462.462,0,0,1-.462.462H5.953a.262.262,0,0,0-.261.262Zm11.7.882a.261.261,0,0,0-.261-.262H13.889v.657h2.378a.462.462,0,0,1,.462.462h0V14.933h.658Zm1.968,15.353a4.8,4.8,0,0,0-.936-.389.463.463,0,0,1-.324-.358l-.2-1.06H16.222l-.2,1.06a.463.463,0,0,1-.324.358,4.813,4.813,0,0,0-.937.389.462.462,0,0,1-.483-.024l-.892-.609L12.2,18.216l.611.894a.461.461,0,0,1,.024.481,4.811,4.811,0,0,0-.386.934.461.461,0,0,1-.358.325l-1.065.2v1.675l1.069.2a.464.464,0,0,1,.358.322,4.666,4.666,0,0,0,.386.929.465.465,0,0,1-.024.483l-.615.9,1.184,1.184.9-.616a.463.463,0,0,1,.482-.024,4.83,4.83,0,0,0,.926.384.462.462,0,0,1,.323.358l.2,1.073H17.9l.2-1.073a.461.461,0,0,1,.323-.358,4.813,4.813,0,0,0,.927-.384.462.462,0,0,1,.481.024l.9.616,1.184-1.185-.615-.9a.461.461,0,0,1-.024-.483,4.727,4.727,0,0,0,.386-.927.462.462,0,0,1,.358-.323l1.069-.2V21.05l-1.064-.2a.462.462,0,0,1-.359-.324,4.83,4.83,0,0,0-.386-.935.462.462,0,0,1,.024-.481l.611-.894-1.184-1.184-.892.609a.461.461,0,0,1-.482.024ZM4.808,3.634H1.748V21.981H10.1V20.838a.669.669,0,0,1,.544-.657l1-.189a5.779,5.779,0,0,1,.243-.587l-.575-.843a.669.669,0,0,1,.079-.85l1.486-1.485a.666.666,0,0,1,.85-.079l.84.574a5.423,5.423,0,0,1,.59-.245l.188-1a.671.671,0,0,1,.453-.512V3.634H13.848a1.186,1.186,0,0,1-1.145.881H5.953A1.186,1.186,0,0,1,4.808,3.634Z" transform="translate(-0.122 -0.122)" fill="none" stroke="#333" stroke-width="0.329"/>
  </g>
</svg>
