<svg xmlns="http://www.w3.org/2000/svg" width="16.61" height="16.61" viewBox="0 0 16.61 16.61">
  <g id="Group_38" data-name="Group 38" transform="translate(0 -0.006)">
    <g id="Group_29" data-name="Group 29" transform="translate(8.955 0.006)">
      <g id="Group_28" data-name="Group 28" transform="translate(0 0)">
        <path id="Path_23" data-name="Path 23" d="M281.508,2.183C280.042.718,278.718.006,277.457.006a.344.344,0,0,0-.244.1c-1.413,1.413-1.855,3.825.346,6.026a4.627,4.627,0,0,0,3.267,1.529,3.917,3.917,0,0,0,2.759-1.183.348.348,0,0,0,.1-.245C283.685,4.974,282.974,3.648,281.508,2.183Zm-3.46,3.461C276.12,3.716,276.585,1.806,277.6.7a5.707,5.707,0,0,1,3.418,1.971,5.7,5.7,0,0,1,1.971,3.418C281.886,7.108,279.976,7.572,278.048,5.644Z" transform="translate(-276.03 -0.006)" fill="#0497a7"/>
      </g>
    </g>
    <g id="Group_31" data-name="Group 31" transform="translate(10.035 0.006)">
      <g id="Group_30" data-name="Group 30" transform="translate(0 0)">
        <path id="Path_24" data-name="Path 24" d="M315.573,5.889a6.734,6.734,0,0,1-3.561-1.975A6.727,6.727,0,0,1,310.036.352a.346.346,0,0,0-.692,0A7.3,7.3,0,0,0,311.521,4.4a7.3,7.3,0,0,0,4.051,2.177.346.346,0,1,0,0-.692Z" transform="translate(-309.344 -0.006)" fill="#0497a7"/>
      </g>
    </g>
    <g id="Group_33" data-name="Group 33" transform="translate(6.075 3.467)">
      <g id="Group_32" data-name="Group 32">
        <path id="Path_25" data-name="Path 25" d="M194.225,110.25a.346.346,0,0,0-.489,0l-2.768,2.768c-.141.14-.821.073-1.933-1.038s-1.179-1.792-1.038-1.933l2.768-2.768a.346.346,0,1,0-.489-.489l-2.768,2.768c-.453.453-.418,1.455,1.038,2.912a3.546,3.546,0,0,0,2.242,1.294.919.919,0,0,0,.669-.256l2.768-2.768A.346.346,0,0,0,194.225,110.25Z" transform="translate(-187.251 -106.688)" fill="#0497a7"/>
      </g>
    </g>
    <g id="Group_35" data-name="Group 35" transform="translate(1.794 5.693)">
      <g id="Group_34" data-name="Group 34">
        <path id="Path_26" data-name="Path 26" d="M63.789,179.426a.346.346,0,0,0-.489.489,3.1,3.1,0,0,1-.346,3.663c-.6.594-2.264-.332-4.355-2.422S55.58,177.4,56.176,176.8a3.1,3.1,0,0,1,3.663-.346.346.346,0,0,0,.489-.489,3.755,3.755,0,0,0-4.642.346c-1.2,1.2.653,3.565,2.422,5.334,1.377,1.377,3.112,2.806,4.381,2.806a1.3,1.3,0,0,0,.953-.383A3.754,3.754,0,0,0,63.789,179.426Z" transform="translate(-55.303 -175.322)" fill="#0497a7"/>
      </g>
    </g>
    <g id="Group_37" data-name="Group 37" transform="translate(0 10.733)">
      <g id="Group_36" data-name="Group 36" transform="translate(0)">
        <path id="Path_27" data-name="Path 27" d="M5.815,332.21a.346.346,0,0,0-.484-.074l-3.377,2.476,2.476-3.377a.346.346,0,0,0-.558-.41L.067,336.017a.346.346,0,0,0,.484.484l5.191-3.806A.347.347,0,0,0,5.815,332.21Z" transform="translate(0 -330.685)" fill="#0497a7"/>
      </g>
    </g>
  </g>
</svg>
