<svg id="Group_425" data-name="Group 425" xmlns="http://www.w3.org/2000/svg" width="54.088" height="54.088" viewBox="0 0 54.088 54.088">
  <path id="Path_42" data-name="Path 42" d="M11.987,156.347,10.1,163.376l-6.881.146a27.091,27.091,0,0,1-.2-25.253h0l6.126,1.123,2.684,6.09a16.14,16.14,0,0,0,.152,10.867Z" transform="translate(0 -123.661)" fill="#fbbb00"/>
  <path id="Path_43" data-name="Path 43" d="M287.6,208.176a27.033,27.033,0,0,1-9.641,26.142h0l-7.716-.394-1.092-6.817a16.118,16.118,0,0,0,6.935-8.231H261.628v-10.7H287.6Z" transform="translate(-233.99 -186.184)" fill="#518ef8"/>
  <path id="Path_44" data-name="Path 44" d="M71.259,324.855h0a27.053,27.053,0,0,1-40.751-8.274l8.764-7.174a16.084,16.084,0,0,0,23.177,8.235Z" transform="translate(-27.286 -276.723)" fill="#28b446"/>
  <path id="Path_45" data-name="Path 45" d="M69.906,6.226,61.145,13.4a16.082,16.082,0,0,0-23.709,8.421l-8.81-7.213h0A27.049,27.049,0,0,1,69.906,6.226Z" transform="translate(-25.6)" fill="#f14336"/>
</svg>
