<svg id="Group_3" data-name="Group 3" xmlns="http://www.w3.org/2000/svg" width="20.984" height="19.857" viewBox="0 0 20.984 19.857">
  <path id="Path_5" data-name="Path 5" d="M122.578,290.34a.41.41,0,1,0-.56-.15A.41.41,0,0,0,122.578,290.34Zm0,0" transform="translate(-116.965 -277.707)" fill="#333"/>
  <path id="Path_6" data-name="Path 6" d="M3.934,36.9,6,40.476a1.639,1.639,0,1,0,2.839-1.639l-1.23-2.13,1.065-.615a.41.41,0,0,0,.15-.56l-.533-.923,7.85-1.54a1.229,1.229,0,0,0,1-1.842l-1.362-2.359.87-1.318a.41.41,0,0,0,.013-.431l-.82-1.42a.411.411,0,0,0-.38-.2l-1.577.095L12.37,22.97a1.219,1.219,0,0,0-1.049-.615H11.3a1.219,1.219,0,0,0-1.035.567l-5.354,6.82-3.481,2.01a2.869,2.869,0,0,0,2.5,5.149Zm4.194,2.346a.82.82,0,0,1-1.42.82l-2.049-3.55,1.42-.82,2.049,3.55ZM7.2,36l-.41-.71.71-.41.41.71Zm8.057-9.669.566.981-.505.765-.976-1.691Zm-4.3-2.956a.41.41,0,0,1,.7.008l4.767,8.257a.41.41,0,0,1-.345.614,1.505,1.505,0,0,0-.225.038l-5.043-8.734c.106-.136.119-.149.14-.184Zm-.686.878,4.738,8.206-7.15,1.4L5.682,30.093ZM1.094,35.262a2.048,2.048,0,0,1,.75-2.8l3.194-1.844,2.049,3.549L3.894,36.012a2.052,2.052,0,0,1-2.8-.75Zm0,0" transform="translate(0 -21.439)" fill="#333"/>
  <path id="Path_7" data-name="Path 7" d="M45.276,309.778a.41.41,0,0,0-.56-.15l-.71.41a.41.41,0,0,1-.56-.15.41.41,0,1,0-.71.41,1.231,1.231,0,0,0,1.68.45l.71-.41a.41.41,0,0,0,.15-.56Zm0,0" transform="translate(-40.932 -296.885)" fill="#333"/>
  <path id="Path_8" data-name="Path 8" d="M438.769,42.533,436.486,43.8a.41.41,0,0,0,.4.716l2.284-1.271a.41.41,0,0,0-.4-.716Zm0,0" transform="translate(-418.394 -40.74)" fill="#333"/>
  <path id="Path_9" data-name="Path 9" d="M442.163,137.059l-1.584-.424a.41.41,0,1,0-.212.792l1.584.424a.41.41,0,1,0,.212-.792Zm0,0" transform="translate(-422.027 -131.022)" fill="#333"/>
  <path id="Path_10" data-name="Path 10" d="M383.931.3l-.425,1.584a.41.41,0,0,0,.792.212l.425-1.584A.41.41,0,1,0,383.931.3Zm0,0" transform="translate(-367.775 0)" fill="#333"/>
</svg>
