<svg xmlns="http://www.w3.org/2000/svg" width="18.873" height="18.873" viewBox="0 0 18.873 18.873">
  <g id="Group_444" data-name="Group 444" transform="translate(0 -0.006)">
    <g id="Group_29" data-name="Group 29" transform="translate(10.175 0.006)">
      <g id="Group_28" data-name="Group 28" transform="translate(0 0)">
        <path id="Path_23" data-name="Path 23" d="M282.255,2.48c-1.666-1.665-3.171-2.474-4.6-2.474a.391.391,0,0,0-.278.116c-1.606,1.606-2.107,4.346.393,6.847a5.257,5.257,0,0,0,3.712,1.737,4.45,4.45,0,0,0,3.135-1.344.4.4,0,0,0,.115-.278C284.729,5.651,283.92,4.145,282.255,2.48Zm-3.932,3.933c-2.19-2.191-1.662-4.361-.508-5.615a6.484,6.484,0,0,1,3.884,2.24,6.482,6.482,0,0,1,2.24,3.884C282.684,8.076,280.514,8.6,278.323,6.413Z" transform="translate(-276.03 -0.006)" fill="#333"/>
      </g>
    </g>
    <g id="Group_31" data-name="Group 31" transform="translate(11.403 0.006)">
      <g id="Group_30" data-name="Group 30" transform="translate(0 0)">
        <path id="Path_24" data-name="Path 24" d="M316.421,6.69a7.652,7.652,0,0,1-4.047-2.244A7.643,7.643,0,0,1,310.13.4a.393.393,0,0,0-.786,0c0,1.174,1.11,3.24,2.474,4.6s3.429,2.474,4.6,2.474a.393.393,0,1,0,0-.786Z" transform="translate(-309.344 -0.006)" fill="#333"/>
      </g>
    </g>
    <g id="Group_33" data-name="Group 33" transform="translate(6.902 3.938)">
      <g id="Group_32" data-name="Group 32">
        <path id="Path_25" data-name="Path 25" d="M195.176,110.735a.393.393,0,0,0-.556,0l-3.145,3.145c-.16.16-.933.083-2.2-1.18s-1.339-2.037-1.18-2.2l3.145-3.145a.393.393,0,0,0-.556-.556l-3.145,3.145c-.514.514-.475,1.654,1.18,3.308a4.03,4.03,0,0,0,2.548,1.47,1.044,1.044,0,0,0,.76-.291l3.145-3.145A.393.393,0,0,0,195.176,110.735Z" transform="translate(-187.251 -106.688)" fill="#333"/>
      </g>
    </g>
    <g id="Group_35" data-name="Group 35" transform="translate(2.039 6.468)">
      <g id="Group_34" data-name="Group 34">
        <path id="Path_26" data-name="Path 26" d="M64.945,179.985a.393.393,0,1,0-.556.556A3.517,3.517,0,0,1,64,184.7c-.676.675-2.573-.377-4.949-2.752s-3.429-4.272-2.752-4.949a3.517,3.517,0,0,1,4.162-.393.393.393,0,0,0,.556-.556,4.267,4.267,0,0,0-5.274.393c-1.367,1.368.742,4.051,2.752,6.061,1.564,1.564,3.536,3.188,4.978,3.188a1.473,1.473,0,0,0,1.083-.436A4.266,4.266,0,0,0,64.945,179.985Z" transform="translate(-55.303 -175.322)" fill="#333"/>
      </g>
    </g>
    <g id="Group_37" data-name="Group 37" transform="translate(0 12.195)">
      <g id="Group_36" data-name="Group 36" transform="translate(0)">
        <path id="Path_27" data-name="Path 27" d="M6.607,332.418a.393.393,0,0,0-.55-.084l-3.837,2.814,2.814-3.837a.393.393,0,0,0-.634-.466l-4.325,5.9a.393.393,0,0,0,.55.55l5.9-4.325A.394.394,0,0,0,6.607,332.418Z" transform="translate(0 -330.685)" fill="#333"/>
      </g>
    </g>
  </g>
</svg>
